<svg width="247" height="165" viewBox="0 0 247 165" fill="none" xmlns="http://www.w3.org/2000/svg">
<rect width="247" height="165"/>
<path d="M94.5331 38.3068C95.8684 38.3082 97.1737 37.9096 98.2813 37.1621L107.033 45.9401V51.7523C100.975 54.4634 95.7544 58.7551 91.9169 64.1788H96.1242C99.2549 60.3644 103.184 57.2858 107.633 55.1609C112.082 53.036 116.943 51.9167 121.872 51.8822H122.059C126.955 51.8831 131.792 52.9568 136.231 55.0282C140.669 57.0997 144.602 60.1186 147.753 63.8736L142.914 63.6116L142.737 66.9508L153.305 67.5201L153.963 57.3375L150.633 57.1313L150.341 61.7574C146.765 57.4886 142.273 54.084 137.2 51.7976V45.9401L145.958 37.1621C147.327 38.0859 148.985 38.4772 150.622 38.2623C152.258 38.0475 153.759 37.2413 154.844 35.9954C155.929 34.7494 156.523 33.1493 156.514 31.4958C156.504 29.8423 155.893 28.249 154.794 27.0154C153.695 25.7819 152.184 24.9928 150.546 24.7965C148.907 24.6003 147.253 25.0103 145.895 25.9495C144.537 26.8888 143.568 28.2927 143.17 29.8974C142.772 31.5022 142.972 33.1973 143.733 34.6644L133.853 44.5644V50.4962C130.581 49.3919 127.17 48.7531 123.72 48.5987V33.2661C125.295 32.8108 126.651 31.7951 127.532 30.4096C128.412 29.0242 128.758 27.3642 128.504 25.7412C128.251 24.1183 127.414 22.644 126.152 21.5952C124.891 20.5463 123.29 19.9949 121.652 20.0446C120.013 20.0942 118.449 20.7414 117.252 21.8647C116.056 22.9881 115.31 24.5103 115.155 26.1456C114.999 27.7809 115.444 29.417 116.407 30.7466C117.37 32.0762 118.784 33.008 120.384 33.3671V48.5904C116.978 48.747 113.611 49.3765 110.378 50.4611V44.55L100.508 34.65C101.007 33.6953 101.269 32.6339 101.27 31.5563C101.27 30.2211 100.875 28.916 100.135 27.8058C99.3944 26.6957 98.3422 25.8305 97.1112 25.3195C95.8802 24.8086 94.5256 24.6749 93.2188 24.9354C91.9119 25.1959 90.7115 25.8388 89.7693 26.7829C88.8272 27.727 88.1855 28.9298 87.9256 30.2393C87.6656 31.5488 87.7991 32.9061 88.309 34.1396C88.8189 35.3731 89.6824 36.4274 90.7902 37.1691C91.8981 37.9109 93.2006 38.3068 94.5331 38.3068ZM149.696 28.1511C150.369 28.1507 151.027 28.3502 151.586 28.7244C152.146 29.0987 152.582 29.6308 152.84 30.2535C153.097 30.8761 153.165 31.5614 153.034 32.2225C152.902 32.8837 152.579 33.491 152.103 33.9676C151.627 34.4442 151.021 34.7688 150.361 34.9002C149.702 35.0316 149.018 34.9639 148.396 34.7058C147.775 34.4477 147.244 34.0106 146.87 33.45C146.497 32.8894 146.298 32.2303 146.298 31.5563C146.299 30.6535 146.658 29.788 147.295 29.1496C147.932 28.5113 148.795 28.1522 149.696 28.1511ZM118.459 26.7857C118.459 26.112 118.659 25.4535 119.032 24.8934C119.406 24.3334 119.937 23.8969 120.558 23.6393C121.179 23.3817 121.863 23.3145 122.522 23.4462C123.181 23.578 123.787 23.9027 124.262 24.3793C124.737 24.856 125.06 25.4631 125.191 26.1239C125.322 26.7847 125.254 27.4695 124.996 28.0917C124.738 28.7138 124.302 29.2453 123.742 29.619C123.183 29.9927 122.526 30.1917 121.853 30.1909C120.953 30.1887 120.09 29.8291 119.454 29.1909C118.818 28.5526 118.46 27.6878 118.459 26.7857ZM94.5331 28.1511C95.2058 28.1507 95.8635 28.3502 96.423 28.7244C96.9825 29.0987 97.4186 29.6308 97.6763 30.2535C97.9339 30.8761 98.0014 31.5614 97.8703 32.2225C97.7391 32.8837 97.4152 33.491 96.9396 33.9676C96.4639 34.4442 95.8578 34.7688 95.198 34.9002C94.5382 35.0316 93.8543 34.9639 93.2329 34.7058C92.6115 34.4477 92.0804 34.0106 91.707 33.45C91.3335 32.8894 91.1344 32.2303 91.1348 31.5563C91.1359 30.6535 91.4942 29.788 92.1313 29.1496C92.7684 28.5113 93.6321 28.1522 94.5331 28.1511Z" fill="white"/>
<path d="M122.265 119.241H122.059C116.901 119.253 111.81 118.067 107.186 115.776C102.562 113.486 98.5298 110.154 95.4058 106.041L99.9588 106.287L100.138 102.95L89.5684 102.38L88.92 112.577L92.2504 112.784L92.5632 107.834C95.8239 112.198 100.012 115.781 104.825 118.324C109.637 120.866 114.954 122.305 120.39 122.535V129.28H114.237V144.955H129.881V129.28H123.733V122.548C130.128 122.268 136.339 120.323 141.756 116.905C147.172 113.487 151.606 108.713 154.62 103.055H150.779C147.808 107.974 143.626 112.047 138.633 114.881C133.64 117.715 128.004 119.217 122.265 119.241ZM126.552 132.619V141.615H117.576V132.619H126.552Z" fill="white"/>
<path d="M47.9592 83.9561V92.4908H43.6367V84.8822C43.6367 83.3312 42.6343 82.3536 41.3581 82.3536C39.7588 82.3536 38.7008 83.523 38.7008 85.8062V92.4908H34.3742V84.8822C34.3742 83.3312 33.3697 82.3536 32.0668 82.3536C30.4942 82.3536 29.463 83.523 29.463 85.8062V92.4908H25.1281V78.8473H29.4671V80.0972C30.3892 79.0659 31.7189 78.4472 33.4829 78.4472C35.3807 78.4472 37.0088 79.2722 37.931 80.7593C39.0157 79.3444 40.6439 78.4472 42.7578 78.4472C45.66 78.4389 47.9592 80.6438 47.9592 83.9561Z" fill="white"/>
<path d="M54.2844 86.7838C54.6364 88.4152 55.7479 89.4197 57.2134 89.4197C58.2179 89.4197 59.3829 89.1763 60.1157 87.8439L63.9668 88.6318C62.8018 91.5193 60.3339 92.8991 57.2134 92.8991C53.28 92.8991 50.0257 89.991 50.0257 85.6701C50.0257 81.3491 53.28 78.4389 57.2299 78.4389C61.0831 78.4389 64.1747 81.2109 64.255 85.6701V86.7838H54.2844ZM54.3668 84.1211H59.9798C59.5682 82.6526 58.4875 81.972 57.2402 81.972C56.5933 81.9689 55.963 82.177 55.4446 82.5647C54.9261 82.9525 54.5478 83.4988 54.3668 84.1211Z" fill="white"/>
<path d="M76.498 92.4908V91.4038C75.44 92.3546 74.028 92.8991 72.266 92.8991C68.6598 92.8991 65.6217 89.991 65.6217 85.6701C65.6217 81.3491 68.6598 78.4389 72.266 78.4389C74.03 78.4389 75.44 78.9834 76.498 79.9343V72.9218H80.839V92.4908H76.498ZM76.498 85.6701C76.498 83.5766 74.9254 82.137 73.1614 82.137C71.2636 82.137 69.8804 83.5808 69.8804 85.6701C69.8804 87.7594 71.2636 89.2031 73.1614 89.2031C74.9233 89.2031 76.498 87.7903 76.498 85.6701Z" fill="white"/>
<path d="M96.1344 89.1763H88.4857L87.2116 92.4908H82.4095L90.0047 74.2809H94.5886L102.184 92.4908H97.4106L96.1344 89.1763ZM90.0047 85.3153H94.6422L92.3101 79.3341L90.0047 85.3153Z" fill="white"/>
<path d="M103.754 92.4908V74.2809H108.231V88.5782H117.181V92.4969L103.754 92.4908Z" fill="white"/>
<path d="M119.132 86.6745L119.838 83.3869H127.676L126.972 86.6745H119.132Z" fill="white"/>
<path d="M135.189 92.763C134.334 92.7796 133.484 92.6174 132.695 92.2866C132.003 91.9935 131.383 91.5537 130.877 90.9975C130.385 90.447 130.011 89.8012 129.778 89.1C129.532 88.355 129.409 87.5747 129.414 86.79C129.416 85.662 129.645 84.5461 130.087 83.5086C130.967 81.3735 132.64 79.664 134.753 78.7401C135.876 78.2446 137.091 77.9943 138.318 78.0058C139.821 78.0058 141.018 78.3406 141.912 79.0102C142.783 79.6611 143.405 80.5925 143.672 81.6482L139.928 82.7351C139.774 82.249 139.47 81.8248 139.059 81.5244C138.627 81.2362 138.114 81.0918 137.595 81.1119C137.024 81.1136 136.46 81.2485 135.949 81.5059C135.409 81.7746 134.929 82.1491 134.537 82.6072C134.115 83.1043 133.781 83.6691 133.547 84.2779C133.293 84.9384 133.167 85.641 133.174 86.3486C133.174 87.329 133.414 88.1265 133.893 88.7411C134.114 89.0375 134.403 89.2762 134.736 89.437C135.069 89.5979 135.435 89.6761 135.805 89.6651C136.412 89.6572 137.006 89.4885 137.528 89.1763C138.056 88.8894 138.507 88.479 138.843 87.9801L142.153 89.067C141.392 90.2184 140.355 91.1602 139.137 91.8059C137.919 92.4517 136.559 92.7807 135.181 92.763H135.189Z" fill="white"/>
<path d="M146.609 78.2512H149.943L149.293 81.2934C149.912 80.3834 150.693 79.596 151.598 78.9711C152.343 78.4348 153.232 78.1365 154.149 78.1151C154.328 78.1151 154.463 78.1151 154.56 78.1275C154.643 78.1357 154.725 78.1495 154.805 78.1687L154.128 81.4027C153.123 81.4154 152.13 81.6329 151.211 82.0421C150.326 82.4248 149.575 83.0632 149.054 83.8757L147.239 92.4907H143.598L146.609 78.2512Z" fill="white"/>
<path d="M159.49 92.763C158.659 92.7771 157.834 92.6249 157.063 92.3154C156.37 92.034 155.745 91.6068 155.231 91.0628C154.716 90.5188 154.324 89.8706 154.081 89.1619C153.811 88.3892 153.678 87.5754 153.688 86.757C153.682 85.6027 153.916 84.4599 154.375 83.4013C154.824 82.3594 155.468 81.4135 156.273 80.6149C157.094 79.8067 158.061 79.1615 159.122 78.7133C160.24 78.2362 161.444 77.9953 162.66 78.0058C164.198 78.0058 165.423 78.3454 166.336 79.0247C167.249 79.7039 167.705 80.6871 167.705 81.9741C167.705 85.0376 164.975 86.5686 159.515 86.5673H158.51C158.166 86.5673 157.806 86.5487 157.425 86.5116V86.8663C157.425 87.8288 157.642 88.6078 158.076 89.2031C158.51 89.7985 159.196 90.0976 160.134 90.1003C160.853 90.1037 161.561 89.9256 162.193 89.5826C162.824 89.2487 163.353 88.7498 163.724 88.1389L166.606 89.0361C166.23 89.5946 165.783 90.1014 165.276 90.5438C164.752 91.0061 164.173 91.403 163.553 91.7256C162.929 92.0529 162.269 92.3082 161.587 92.4866C160.903 92.6695 160.198 92.7624 159.49 92.763ZM162.123 80.6438C161.62 80.6391 161.121 80.7367 160.657 80.9305C160.213 81.1157 159.805 81.3774 159.451 81.7039C159.089 82.0414 158.774 82.4256 158.514 82.8465C158.243 83.2801 158.025 83.7447 157.864 84.2305C158.152 84.249 158.434 84.2593 158.704 84.2593H159.546C160.285 84.2676 161.024 84.2221 161.756 84.1232C162.262 84.0597 162.755 83.9207 163.22 83.7107C163.538 83.5722 163.814 83.3524 164.02 83.0734C164.186 82.8186 164.272 82.5196 164.265 82.2154C164.278 81.9833 164.229 81.7519 164.125 81.5445C164.02 81.337 163.863 81.1609 163.668 81.0336C163.202 80.7548 162.665 80.6193 162.123 80.6438Z" fill="white"/>
<path d="M173.649 92.763C172.915 92.7766 172.186 92.6236 171.519 92.3154C170.906 92.025 170.365 91.6025 169.934 91.0779C169.486 90.5298 169.15 89.8992 168.944 89.2217C168.713 88.4786 168.599 87.7043 168.604 86.9261C168.599 85.7643 168.815 84.6122 169.24 83.5312C169.643 82.4934 170.221 81.5332 170.951 80.6932C171.647 79.8903 172.489 79.2262 173.431 78.7359C174.346 78.2537 175.365 78.0031 176.399 78.0058C177.291 77.9799 178.167 78.2472 178.894 78.7669C179.568 79.2559 180.063 79.9529 180.304 80.751L180.847 78.3049H184.48L182.366 88.3059C182.318 88.4646 182.29 88.6289 182.284 88.7947C182.284 89.1763 182.5 89.3743 182.934 89.3929L182.284 92.4866C181.959 92.5423 181.666 92.5856 181.43 92.6227C181.219 92.657 181.005 92.6757 180.792 92.6784C180.259 92.7056 179.732 92.5611 179.287 92.2659C179.101 92.1241 178.952 91.9381 178.855 91.7246C178.758 91.5112 178.716 91.2769 178.731 91.0429C178.751 90.6945 178.805 90.349 178.894 90.0116C178.256 90.8764 177.425 91.5793 176.467 92.0638C175.595 92.514 174.63 92.7535 173.649 92.763ZM175.275 89.6692C175.613 89.6638 175.947 89.6039 176.265 89.4919C176.626 89.3709 176.969 89.2016 177.284 88.9886C177.615 88.7669 177.924 88.5126 178.204 88.2296C178.49 87.9458 178.736 87.6254 178.937 87.2767L179.643 83.8798C179.556 83.1309 179.222 82.4325 178.694 81.8957C178.461 81.6474 178.179 81.4494 177.867 81.314C177.554 81.1785 177.217 81.1083 176.877 81.1078C176.287 81.1109 175.708 81.2657 175.195 81.5574C174.648 81.86 174.164 82.2655 173.771 82.7516C173.359 83.2582 173.029 83.8269 172.795 84.4367C172.553 85.0465 172.429 85.6966 172.429 86.3527C172.4 87.2058 172.668 88.0424 173.188 88.7184C173.437 89.0297 173.756 89.2776 174.119 89.4421C174.481 89.6066 174.878 89.683 175.275 89.6651V89.6692Z" fill="white"/>
<path d="M189.352 92.7362C188.599 92.7683 187.855 92.5642 187.224 92.1525C186.675 91.7634 186.401 91.1247 186.401 90.2364C186.397 89.8978 186.434 89.56 186.51 89.2299L188.241 81.0563H186.485L187.082 78.2574H188.819L189.778 73.6313H193.422L192.454 78.2513H195.303L194.696 81.0563H191.876L190.383 88.0131C190.365 88.1038 190.353 88.1801 190.342 88.2441C190.334 88.3125 190.33 88.3814 190.33 88.4503C190.316 88.5865 190.335 88.724 190.384 88.8517C190.433 88.9793 190.512 89.0934 190.614 89.1846C190.832 89.3374 191.094 89.4136 191.359 89.4011C191.724 89.4015 192.086 89.3415 192.432 89.2238C192.784 89.1069 193.087 88.9941 193.339 88.8855L193.448 91.773C192.838 92.0587 192.203 92.2866 191.551 92.4536C190.833 92.6442 190.094 92.7393 189.352 92.7362Z" fill="white"/>
<path d="M201.042 92.763C200.182 92.7822 199.328 92.6199 198.534 92.2866C197.851 91.9931 197.24 91.5531 196.744 90.9975C196.26 90.4466 195.891 89.8043 195.659 89.1083C195.412 88.3776 195.288 87.6109 195.293 86.8395C195.291 85.7144 195.516 84.6004 195.953 83.5643C196.835 81.4245 198.499 79.7032 200.605 78.7524C201.721 78.2483 202.934 77.9935 204.158 78.0058C205.005 77.99 205.847 78.1523 206.628 78.4823C207.312 78.7774 207.926 79.2122 208.433 79.7589C208.927 80.3043 209.301 80.9481 209.53 81.6482C209.778 82.3928 209.902 83.1733 209.896 83.9582C209.898 85.0791 209.672 86.1885 209.232 87.219C208.792 88.2627 208.164 89.2163 207.379 90.0323C206.586 90.8643 205.642 91.5376 204.598 92.0164C203.481 92.5211 202.267 92.7759 201.042 92.763ZM201.694 89.6693C202.268 89.6693 202.834 89.5276 203.341 89.2568C203.88 88.9703 204.362 88.588 204.765 88.1286C205.194 87.634 205.533 87.0678 205.767 86.4559C206.023 85.8029 206.152 85.1071 206.148 84.4058C206.148 83.4268 205.913 82.6341 205.442 82.0277C205.218 81.7317 204.927 81.4942 204.591 81.3355C204.256 81.1768 203.888 81.1015 203.518 81.1161C202.943 81.1161 202.378 81.2577 201.871 81.5286C201.33 81.8175 200.847 82.205 200.447 82.6712C200.022 83.1679 199.683 83.7326 199.444 84.3418C199.189 84.9911 199.06 85.6837 199.066 86.3816C199.066 87.3593 199.298 88.1513 199.769 88.7576C199.994 89.0529 200.286 89.2896 200.621 89.4476C200.956 89.6055 201.324 89.6802 201.694 89.6651V89.6693Z" fill="white"/>
<path d="M213.682 78.2512H217.018L216.366 81.2934C216.985 80.3834 217.766 79.596 218.671 78.9711C219.416 78.4348 220.305 78.1365 221.221 78.1151C221.403 78.1151 221.54 78.1192 221.633 78.1275C221.715 78.1357 221.796 78.1495 221.876 78.1687L221.199 81.4027C220.193 81.4154 219.201 81.6329 218.282 82.0421C217.398 82.4248 216.647 83.0632 216.127 83.8757L214.31 92.4907H210.67L213.682 78.2512Z" fill="white"/>
</svg>
