<svg width="83" height="23" viewBox="0 0 83 23" fill="none" xmlns="http://www.w3.org/2000/svg">
<path d="M11.123 22H6.58203V4.36328H0.766602V0.583984H16.9385V4.36328H11.123V22ZM20.2344 22V0.583984H24.7754V22H20.2344ZM39.2334 22L34.0771 5.19824H33.9453C34.1309 8.61621 34.2236 10.8965 34.2236 12.0391V22H30.166V0.583984H36.3477L41.416 16.9609H41.5039L46.8799 0.583984H53.0615V22H48.8281V11.8633C48.8281 11.3848 48.833 10.833 48.8428 10.208C48.8623 9.58301 48.9307 7.92285 49.0479 5.22754H48.916L43.3936 22H39.2334ZM67.5635 4.05566C65.8545 4.05566 64.5312 4.7002 63.5938 5.98926C62.6562 7.26855 62.1875 9.05566 62.1875 11.3506C62.1875 16.126 63.9795 18.5137 67.5635 18.5137C69.0674 18.5137 70.8887 18.1377 73.0273 17.3857V21.1943C71.2695 21.9268 69.3066 22.293 67.1387 22.293C64.0234 22.293 61.6406 21.3506 59.9902 19.4658C58.3398 17.5713 57.5146 14.8564 57.5146 11.3213C57.5146 9.09473 57.9199 7.14648 58.7305 5.47656C59.541 3.79687 60.7031 2.5127 62.2168 1.62402C63.7402 0.725586 65.5225 0.276367 67.5635 0.276367C69.6436 0.276367 71.7334 0.779297 73.833 1.78516L72.3682 5.47656C71.5674 5.0957 70.7617 4.76367 69.9512 4.48047C69.1406 4.19727 68.3447 4.05566 67.5635 4.05566ZM77.5977 22V0.583984H82.1387V22H77.5977Z" fill="#0A2141"/>
</svg>
