<svg width="333" height="222" viewBox="0 0 333 222" fill="none" xmlns="http://www.w3.org/2000/svg">
<rect width="333" height="222"/>
<path d="M128.549 51.7732C130.411 51.7732 132.143 51.2071 133.583 50.2386L145.346 62.0018V69.7912C137.321 73.3765 130.272 79.0764 125.044 86.444H130.686C139.169 76.146 151.815 70.041 165.262 69.9661C165.351 69.9661 165.437 69.9661 165.526 69.9661C178.913 69.9661 191.489 75.9018 200.03 86.0361L193.531 85.6864L193.29 90.1597L207.481 90.9229L208.344 77.2615L203.871 76.9785L203.48 83.1806C198.621 77.4058 192.582 72.8604 185.831 69.8329V62.0018L197.594 50.2386C199.034 51.2071 200.766 51.7732 202.625 51.7732C207.612 51.7732 211.671 47.7161 211.671 42.7267C211.671 37.7372 207.614 33.6829 202.625 33.6829C197.635 33.6829 193.581 37.74 193.581 42.7267C193.581 44.2279 193.956 45.6432 194.605 46.8919L181.349 60.1481V68.0957C176.998 66.6305 172.427 65.7619 167.74 65.5538V45.0216C171.514 43.9338 174.287 40.4567 174.287 36.3359C174.287 31.3492 170.23 27.2921 165.243 27.2921C160.256 27.2921 156.199 31.3492 156.199 36.3359C156.199 40.6427 159.227 44.2474 163.262 45.1548V65.5594C158.641 65.7703 154.126 66.625 149.825 68.0652V60.1481L136.572 46.8919C137.221 45.6432 137.596 44.2307 137.596 42.7267C137.596 37.74 133.539 33.6829 128.549 33.6829C123.56 33.6829 119.505 37.74 119.505 42.7267C119.505 47.7133 123.562 51.7732 128.549 51.7732ZM202.625 38.1646C205.142 38.1646 207.19 40.2125 207.19 42.7294C207.19 45.2464 205.142 47.2943 202.625 47.2943C200.108 47.2943 198.06 45.2464 198.06 42.7294C198.06 40.2125 200.108 38.1646 202.625 38.1646ZM160.678 36.3359C160.678 33.8189 162.726 31.771 165.24 31.771C167.754 31.771 169.805 33.8189 169.805 36.3359C169.805 38.8528 167.757 40.9007 165.24 40.9007C162.723 40.9007 160.678 38.8528 160.678 36.3359ZM128.546 38.1646C131.063 38.1646 133.111 40.2125 133.111 42.7294C133.111 45.2464 131.063 47.2943 128.546 47.2943C126.029 47.2943 123.981 45.2464 123.981 42.7294C123.981 40.2125 126.029 38.1646 128.546 38.1646Z" fill="black"/>
<path d="M165.779 160.24C165.69 160.24 165.601 160.24 165.512 160.24C151.329 160.24 138.248 153.699 129.72 142.555L135.833 142.882L136.075 138.409L121.881 137.646L121.018 151.307L125.491 151.59L125.91 144.952C134.829 156.812 148.413 163.997 163.278 164.652V173.69H155.009V194.711H176.027V173.69H167.757V164.669C185.242 163.889 200.921 154.035 209.235 138.545H204.076C195.957 151.917 181.574 160.148 165.776 160.24H165.779ZM171.548 178.172V190.229H159.49V178.172H171.548Z" fill="black"/>
<path d="M114.216 99.986C119.716 99.986 123.177 103.374 123.177 108.4C123.177 113.425 119.608 116.922 113.961 116.922H108.206V124.389H102.195V99.986H114.213H114.216ZM113.525 111.896C115.856 111.896 117.277 110.548 117.277 108.472C117.277 106.505 115.856 105.12 113.525 105.12H108.208V111.894H113.525V111.896Z" fill="black"/>
<path d="M139.821 105.997L139.566 111.824H138.509C134.429 111.824 132.207 113.936 132.207 118.673V124.392H126.379V106.108H132.207V109.604C133.516 107.417 135.52 105.852 138.509 105.852C139.019 105.852 139.383 105.888 139.818 105.999L139.821 105.997Z" fill="black"/>
<path d="M161.128 115.249C161.128 121.04 156.538 124.9 151.11 124.9C145.682 124.9 140.984 121.04 140.984 115.249C140.984 109.457 145.574 105.633 151.11 105.633C156.646 105.633 161.128 109.493 161.128 115.249ZM155.519 115.249C155.519 112.407 153.371 110.514 151.113 110.514C148.854 110.514 146.595 112.41 146.595 115.249C146.595 118.087 148.743 119.983 151.113 119.983C153.482 119.983 155.519 118.126 155.519 115.249Z" fill="black"/>
<path d="M161.93 125.591C162.512 125.774 163.023 125.882 163.386 125.882C164.297 125.882 164.915 125.3 164.915 124.425V106.105H170.707V125.08C170.707 128.613 168.412 130.944 164.879 130.944C163.203 130.944 162.038 130.58 161.055 130.178L161.93 125.588V125.591ZM171.145 100.713C171.145 102.57 169.725 103.954 167.757 103.954C165.79 103.954 164.405 102.57 164.405 100.713C164.405 98.8566 165.79 97.3997 167.757 97.3997C169.725 97.3997 171.145 98.9287 171.145 100.713Z" fill="black"/>
<path d="M193.107 116.741H179.703C180.178 118.928 181.671 120.274 183.638 120.274C184.987 120.274 186.552 119.947 187.534 118.162L192.707 119.22C191.142 123.08 187.826 124.939 183.638 124.939C178.358 124.939 173.987 121.043 173.987 115.251C173.987 109.46 178.358 105.564 183.674 105.564C188.991 105.564 192.998 109.28 193.109 115.251V116.744L193.107 116.741ZM179.812 113.173H187.351C186.805 111.205 185.348 110.295 183.672 110.295C181.996 110.295 180.358 111.314 179.812 113.173Z" fill="black"/>
<path d="M208.877 116.633L214.23 117.799C213.32 122.133 209.46 124.939 204.906 124.939C199.442 124.939 194.927 121.043 194.927 115.251C194.927 109.46 199.445 105.564 204.906 105.564C209.349 105.564 213.212 108.294 214.23 112.593L208.766 113.905C208.255 111.683 206.762 110.664 204.906 110.664C202.284 110.664 200.535 112.596 200.535 115.254C200.535 117.913 202.284 119.844 204.906 119.844C206.762 119.844 208.258 118.862 208.877 116.639V116.633Z" fill="black"/>
<path d="M230.802 123.59C229.381 124.356 227.889 124.939 225.813 124.939C221.259 124.939 218.528 122.461 218.528 117.654V110.734H215.215V106.108H218.528V100.716H224.356V106.108H229.748V110.734H224.356V117.072C224.356 118.967 225.266 119.73 226.795 119.73C227.597 119.73 228.691 119.439 229.454 119.003L230.802 123.593V123.59Z" fill="black"/>
</svg>
